# xmcd
#
# Track frame offsets: 
#        150
#        12283
#        22998
#        34160
#        47184
#        60144
#        71581
#        83856
#        94942
#        107603
#        128676
#        143417
#
# Disc length: 2080 seconds
#
# Revision: 0
# Processed by: cddbd v1.5.2PL0 Copyright (c) Steve Scherf et al.
# Submitted via: ExactAudioCopy v1.0b1
#
DISCID=8f081e0c
DTITLE=Various Artist - Today's Hits - Philles Records
DYEAR=2011
DGENRE=R&B
TTITLE0=The Crystals - Then He Kissed Me
TTITLE1=The Crystals - Da Doo Ron Ron
TTITLE2=The Crystals - Oh Yeah, Maybe Baby
TTITLE3=Bob B. Soxx - Zip-A-Dee-Doo-Dah
TTITLE4=Bob B. Soxx - Why Do Lovers Break Each Others Hearts
TTITLE5=Bob B. Soxx - Not Too Young To Get Married
TTITLE6=The Ronettes - Be My Baby
TTITLE7=Darlene Love - Wait 'Til My Bobby Gets Home
TTITLE8=Darlene Love - (Today I Met) The Boy I'm Gonna Marry
TTITLE9=Darlene Love - My Heart Beat A Little Bit Faster
TTITLE10=Darlene Love - Playing For Keeps
TTITLE11=The Alley Cays - Puddin' 'N' Tain
EXTD=
EXTT0=
EXTT1=
EXTT2=
EXTT3=
EXTT4=
EXTT5=
EXTT6=
EXTT7=
EXTT8=
EXTT9=
EXTT10=
EXTT11=
PLAYORDER=
